<?xml version="1.0" standalone="no"?>
<svg version="1.0" xmlns="http://www.w3.org/2000/svg"
 width="512.000000pt" height="512.000000pt" viewBox="0 0 512.000000 512.000000"
 preserveAspectRatio="xMidYMid meet">

<g transform="translate(0.000000,512.000000) scale(0.100000,-0.100000)"
fill="#CC0000" stroke="none">
<path d="M1044 5109 c-138 -23 -264 -90 -375 -199 -59 -59 -85 -95 -121 -167
-85 -169 -79 24 -76 -2319 l3 -2080 38 -78 c112 -226 373 -324 602 -226 27 12
78 43 114 69 36 27 351 242 699 480 l632 431 648 -442 c356 -243 670 -458 697
-479 176 -133 411 -128 585 12 56 45 115 137 140 216 20 64 20 90 20 2127 0
2030 0 2064 -20 2141 -53 206 -205 385 -398 466 -148 61 -84 59 -1680 58 -802
-1 -1480 -5 -1508 -10z m3004 -473 c54 -23 116 -94 131 -148 9 -32 11 -543 9
-2029 l-3 -1986 -760 518 c-418 286 -776 524 -795 529 -49 14 -101 12 -146 -4
-22 -7 -379 -245 -794 -529 l-755 -515 -3 1986 c-2 1473 0 1998 9 2029 21 77
97 147 179 164 19 4 676 6 1460 5 1367 -1 1427 -2 1468 -20z"/>
</g>
</svg>
