<?xml version="1.0" standalone="no"?>
<svg version="1.0" xmlns="http://www.w3.org/2000/svg"
 width="512.000000pt" height="512.000000pt" viewBox="0 0 512.000000 512.000000"
 preserveAspectRatio="xMidYMid meet">

<g transform="translate(0.000000,512.000000) scale(0.100000,-0.100000)"
fill="#FFFFFF" stroke="none">
<path d="M681 4784 c-169 -45 -301 -180 -346 -351 -23 -86 -23 -3660 0 -3746
45 -173 178 -307 350 -352 52 -13 277 -15 1875 -15 1980 0 1865 -3 1982 56 71
36 159 123 197 193 65 123 61 -8 61 1991 0 1598 -2 1823 -15 1875 -45 172
-179 305 -352 350 -85 22 -3669 21 -3752 -1z m3725 -330 c15 -11 37 -33 48
-48 20 -27 21 -41 24 -457 l3 -429 -1921 0 -1920 0 0 414 c0 270 4 425 11 443
14 37 47 73 84 89 25 11 346 13 1837 11 l1807 -2 27 -21z m72 -2483 c-3 -1224
-3 -1230 -24 -1257 -11 -15 -33 -37 -48 -48 l-27 -21 -1819 0 -1819 0 -27 21
c-15 11 -37 33 -48 48 -21 27 -21 33 -24 1257 l-2 1229 1920 0 1920 0 -2
-1229z"/>
<path d="M1055 4146 c-97 -43 -124 -171 -54 -251 42 -47 84 -57 221 -53 126 3
147 11 192 72 29 39 29 133 0 172 -46 62 -65 69 -202 72 -91 1 -136 -2 -157
-12z"/>
<path d="M1855 4146 c-97 -43 -124 -171 -54 -251 42 -47 84 -57 221 -53 126 3
147 11 192 72 29 39 29 133 0 172 -46 62 -65 69 -202 72 -91 1 -136 -2 -157
-12z"/>
<path d="M1767 2350 c-191 -48 -323 -248 -288 -438 24 -131 100 -231 220 -289
51 -26 67 -28 192 -31 153 -4 187 5 214 58 20 40 19 79 -5 118 -29 48 -72 62
-186 62 -81 0 -102 3 -131 21 -44 27 -63 66 -63 128 0 39 6 56 26 80 40 48 60
55 186 61 117 5 118 6 150 38 28 28 33 39 33 82 0 43 -5 54 -33 82 l-32 33
-123 2 c-67 1 -139 -2 -160 -7z"/>
<path d="M2475 2342 c-35 -11 -67 -33 -106 -72 -79 -79 -92 -126 -87 -317 4
-168 17 -211 82 -276 69 -69 106 -82 236 -82 130 0 167 13 236 82 65 65 78
108 82 276 5 192 -8 238 -87 317 -41 41 -70 60 -110 73 -67 21 -180 21 -246
-1z m187 -239 c15 -14 18 -32 18 -129 0 -133 -6 -144 -80 -144 -74 0 -80 11
-80 142 0 133 8 148 78 148 28 0 52 -6 64 -17z"/>
<path d="M3304 2346 c-96 -31 -182 -118 -210 -214 -21 -68 -20 -442 1 -482 28
-55 105 -76 165 -45 54 28 60 54 60 270 0 195 0 196 25 220 32 33 78 33 110 0
25 -24 25 -25 25 -220 0 -216 6 -242 60 -270 60 -31 137 -10 165 45 12 23 15
69 15 225 0 195 0 196 25 220 32 33 78 33 110 0 25 -24 25 -25 25 -220 0 -216
6 -242 60 -270 60 -31 137 -10 166 46 13 26 15 65 12 253 l-3 221 -34 63 c-61
113 -149 165 -276 166 -71 1 -88 -3 -143 -30 l-62 -31 -60 30 c-70 35 -170 45
-236 23z"/>
<path d="M1055 1906 c-101 -44 -125 -178 -46 -257 65 -65 157 -65 222 0 124
124 -15 327 -176 257z"/>
</g>
</svg>
