<?xml version="1.0" standalone="no"?>
<svg version="1.0" xmlns="http://www.w3.org/2000/svg"
 width="256.000000pt" height="256.000000pt" viewBox="0 0 256.000000 256.000000"
 preserveAspectRatio="xMidYMid meet">

<g transform="translate(0.000000,256.000000) scale(0.100000,-0.100000)"
fill="#CC0000" stroke="none">
<path d="M2130 2457 c-14 -8 -284 -271 -600 -587 l-574 -573 -70 23 c-96 31
-219 37 -321 16 -233 -48 -422 -231 -481 -465 -24 -98 -16 -263 19 -361 77
-215 262 -369 490 -408 109 -18 206 -10 312 27 200 70 354 246 401 457 22 100
15 243 -15 333 l-22 65 230 230 230 230 94 -92 c91 -88 96 -92 139 -92 53 0
98 29 170 109 86 95 79 135 -42 256 l-90 90 57 57 c32 32 62 58 68 58 6 0 28
-18 50 -40 40 -41 85 -57 130 -46 30 8 151 119 171 157 8 16 14 46 14 69 0 35
-7 48 -45 89 l-46 49 22 36 c37 64 24 95 -83 204 -122 122 -152 138 -208 109z
m177 -296 c-20 -23 -37 -46 -37 -52 0 -6 27 -39 60 -73 33 -35 60 -67 60 -72
0 -5 -27 -36 -60 -69 l-60 -59 -63 62 c-34 34 -71 62 -82 62 -27 0 -245 -218
-245 -245 0 -12 43 -62 107 -127 l108 -108 -60 -60 c-33 -33 -64 -60 -69 -60
-6 0 -58 47 -116 105 -59 58 -113 105 -121 105 -7 0 -139 -125 -292 -277 -313
-312 -292 -279 -247 -398 31 -82 38 -210 16 -293 -26 -104 -65 -171 -142 -249
-82 -84 -158 -124 -275 -149 -261 -54 -535 119 -604 381 -79 304 124 612 433
657 98 14 186 3 284 -36 50 -20 72 -25 85 -17 10 5 281 273 603 595 l585 586
84 -84 85 -85 -37 -40z"/>
<path d="M615 1047 c-99 -26 -168 -80 -215 -168 -68 -128 -49 -278 49 -382 66
-71 128 -99 226 -105 96 -5 168 18 234 75 156 133 159 362 6 501 -83 76 -196
105 -300 79z m170 -112 c103 -42 161 -156 135 -265 -40 -168 -243 -237 -376
-127 -98 81 -110 230 -26 327 69 82 168 106 267 65z"/>
</g>
</svg>
