<?xml version="1.0" standalone="no"?>
<svg version="1.0" xmlns="http://www.w3.org/2000/svg"
 width="256.000000pt" height="256.000000pt" viewBox="0 0 256.000000 256.000000"
 preserveAspectRatio="xMidYMid meet">

<g transform="translate(0.000000,256.000000) scale(0.100000,-0.100000)"
fill="#CC0000" stroke="none">
<path d="M390 1913 c-81 -30 -90 -157 -14 -192 35 -16 1773 -16 1808 0 60 28
71 122 20 170 l-26 24 -886 2 c-488 1 -894 -1 -902 -4z"/>
<path d="M383 1375 c-33 -14 -63 -59 -63 -95 0 -37 30 -81 65 -96 50 -21 1309
-21 1359 0 43 18 66 51 66 96 0 45 -23 78 -66 96 -49 21 -1314 20 -1361 -1z"/>
<path d="M373 838 c-57 -28 -67 -122 -17 -169 l26 -24 459 -3 c513 -3 507 -4
535 65 19 43 5 93 -33 123 -25 19 -39 20 -487 19 -298 0 -469 -4 -483 -11z"/>
</g>
</svg>
